<?xml version="1.0" standalone="no"?>
<!DOCTYPE svg PUBLIC "-//W3C//DTD SVG 20010904//EN"
 "http://www.w3.org/TR/2001/REC-SVG-20010904/DTD/svg10.dtd">
<svg version="1.0" xmlns="http://www.w3.org/2000/svg"
 width="96.000000pt" height="96.000000pt" viewBox="0 0 96.000000 96.000000"
 preserveAspectRatio="xMidYMid meet">
<metadata>
Created by potrace 1.14, written by Peter Selinger 2001-2017
</metadata>
<g transform="translate(0.000000,96.000000) scale(0.100000,-0.100000)"
fill="#000000" stroke="none">
<path d="M41 938 c-10 -3 -20 -15 -22 -25 -8 -33 -3 -729 5 -741 5 -9 57 -12
182 -12 167 0 174 -1 174 -20 0 -21 -36 -49 -84 -65 -24 -8 -31 -16 -31 -35
l0 -24 210 1 c116 1 213 2 218 2 4 1 7 10 7 21 0 14 -16 27 -57 47 -42 20 -59
34 -61 51 l-3 22 175 0 c121 0 177 4 182 12 12 20 10 739 -2 756 -10 14 -68
16 -443 16 -238 1 -440 -2 -450 -6z"/>
</g>
</svg>
