<svg width="140" height="26" viewBox="0 0 140 26" fill="none" xmlns="http://www.w3.org/2000/svg">
<path d="M42.8259 1.46154H34.334V24.5385H39.4612V17.2857H42.8259C47.2481 17.2857 50.6769 13.7582 50.6769 9.37363C50.6769 4.98901 47.2481 1.46154 42.8259 1.46154ZM42.8259 12.3407H39.4612V6.40659H42.8259C44.3961 6.40659 45.5497 7.69231 45.5497 9.37363C45.5497 11.0549 44.3961 12.3407 42.8259 12.3407Z" fill="black"/>
<path d="M63.782 25C67.8838 25 71.4728 22.9231 73.3955 19.6593L68.9733 17.022C68.012 18.8022 66.0572 19.8571 63.782 19.8571C59.8085 19.8571 57.2449 17.1209 57.2449 13C57.2449 8.87912 59.8085 6.14286 63.782 6.14286C66.0572 6.14286 67.9799 7.1978 68.9733 8.97802L73.3955 6.34066C71.4408 3.07692 67.8517 1 63.782 1C57.0206 1 52.1177 6.20879 52.1177 13C52.1177 19.7912 57.0206 25 63.782 25Z" fill="black"/>
<path d="M86.1885 25C90.2902 25 93.8793 22.9231 95.802 19.6593L91.3798 17.022C90.4184 18.8022 88.4637 19.8571 86.1885 19.8571C82.2149 19.8571 79.6513 17.1209 79.6513 13C79.6513 8.87912 82.2149 6.14286 86.1885 6.14286C88.4637 6.14286 90.3864 7.1978 91.3798 8.97802L95.802 6.34066C93.8472 3.07692 90.2582 1 86.1885 1C79.427 1 74.5241 6.20879 74.5241 13C74.5241 19.7912 79.427 25 86.1885 25Z" fill="black"/>
<path d="M106.697 1.46154H98.2048V24.5385H103.332V17.2857H106.697C111.119 17.2857 114.548 13.7582 114.548 9.37363C114.548 4.98901 111.119 1.46154 106.697 1.46154ZM106.697 12.3407H103.332V6.40659H106.697C108.267 6.40659 109.421 7.69231 109.421 9.37363C109.421 11.0549 108.267 12.3407 106.697 12.3407Z" fill="black"/>
<path d="M116.999 25.0003C118.458 25.0003 119.665 23.7933 119.665 22.3337C119.665 20.874 118.458 19.667 116.999 19.667C115.539 19.667 114.332 20.874 114.332 22.3337C114.332 23.7933 115.539 25.0003 116.999 25.0003Z" fill="black"/>
<path d="M130.128 19.4604V15.3725H138.139V10.3615H130.128V6.53737H138.941V1.46045H125.001V24.5374H139.101V19.4604H130.128Z" fill="black"/>
<path fill-rule="evenodd" clip-rule="evenodd" d="M7.64706 0C3.42371 0 0 3.4237 0 7.64706L13.7647 7.64706C17.7775 7.64706 21.0684 4.5562 21.3866 0.625345C20.4565 0.222987 19.4308 0 18.3529 0H7.64706ZM15.2941 16.8235C15.2941 12.6002 11.8704 9.17647 7.64706 9.17647H0V16.8235H15.2941ZM0 18.3529C0 22.5763 3.4237 26 7.64706 26H18.3529C18.3651 26 18.3773 26 18.3895 25.9999L19.8835 25.9999C19.8835 24.0683 19.167 22.3041 17.9854 20.9584C16.5838 19.3611 14.5273 18.3527 12.2353 18.3527H0C0 18.3528 0 18.3529 0 18.3529Z" fill="url(#paint0_linear_461_10428)"/>
<path d="M7.62249 0C6.54466 0 5.51892 0.222987 4.58887 0.625345C4.90701 4.5562 8.19792 7.64706 12.2107 7.64706H25.9754C25.9754 3.42371 22.5517 0 18.3284 0H7.62249Z" fill="url(#paint1_linear_461_10428)"/>
<path d="M7.62267 16.8235C7.62267 12.6002 11.0464 9.17647 15.2697 9.17647H25.9756C25.9756 13.3998 22.5519 16.8235 18.3286 16.8235H7.62267Z" fill="url(#paint2_linear_461_10428)"/>
<path d="M15.2445 18.9783C14.9264 22.9091 11.6355 26 7.62267 26V18.3529H12.2109C13.2887 18.3529 14.3145 18.5759 15.2445 18.9783Z" fill="url(#paint3_linear_461_10428)"/>
<path d="M4.58789 0.635925C5.52437 0.226898 6.55861 0 7.64585 0H18.3265C19.4138 0 20.448 0.2269 21.3845 0.635927C21.0613 4.56175 17.7727 7.64706 13.7635 7.64706H12.2078C8.19906 7.64648 4.91105 4.56138 4.58789 0.635925Z" fill="#AD00FF"/>
<path d="M11.4569 10.1923C13.7495 11.5127 15.2929 13.9879 15.2929 16.8235H7.62083C7.62083 13.9879 9.16427 11.5127 11.4569 10.1923Z" fill="#AD00FF"/>
<path d="M7.63334 26C7.62917 26 7.625 26 7.62083 26V18.3529H12.2091C13.2869 18.3529 14.3126 18.5759 15.2427 18.9783C14.9249 22.9051 11.6405 25.9936 7.63334 26Z" fill="#AD00FF"/>
<defs>
<linearGradient id="paint0_linear_461_10428" x1="-1.43143e-08" y1="13.0001" x2="21.4142" y2="13.6197" gradientUnits="userSpaceOnUse">
<stop stop-color="#47BAFF"/>
<stop offset="1" stop-color="#92D6FF"/>
</linearGradient>
<linearGradient id="paint1_linear_461_10428" x1="4.58887" y1="13" x2="26.003" y2="13.6197" gradientUnits="userSpaceOnUse">
<stop stop-color="#B210FF"/>
<stop offset="1" stop-color="#EF4BFF"/>
</linearGradient>
<linearGradient id="paint2_linear_461_10428" x1="4.58887" y1="13" x2="26.003" y2="13.6197" gradientUnits="userSpaceOnUse">
<stop stop-color="#B210FF"/>
<stop offset="1" stop-color="#EF4BFF"/>
</linearGradient>
<linearGradient id="paint3_linear_461_10428" x1="4.58887" y1="13" x2="26.003" y2="13.6197" gradientUnits="userSpaceOnUse">
<stop stop-color="#B210FF"/>
<stop offset="1" stop-color="#EF4BFF"/>
</linearGradient>
</defs>
</svg>
